Coordinates
version=1
nRows=17
nColumns=40
inDegrees=yes

Units are S.I. units (second, meters, Newtons, ...)
Angles are in degrees.

endheader
time	pelvis_tilt	pelvis_list	pelvis_rotation	pelvis_tx	pelvis_ty	pelvis_tz	hip_flexion_r	hip_adduction_r	hip_rotation_r	knee_angle_r	knee_angle_r_beta	ankle_angle_r	subtalar_angle_r	mtp_angle_r	hip_flexion_l	hip_adduction_l	hip_rotation_l	knee_angle_l	knee_angle_l_beta	ankle_angle_l	subtalar_angle_l	mtp_angle_l	lumbar_extension	lumbar_bending	lumbar_rotation	arm_flex_r	arm_add_r	arm_rot_r	elbow_flex_r	pro_sup_r	wrist_flex_r	wrist_dev_r	arm_flex_l	arm_add_l	arm_rot_l	elbow_flex_l	pro_sup_l	wrist_flex_l	wrist_dev_l
     34.10000000	     -2.28289910	     -6.48099534	      3.90178665	      1.05705543	      0.93104676	      0.50978322	     11.71647065	      5.29587831	    -16.70189252	     15.90483961	     15.90483961	      8.47839442	     -3.51952071	     -4.35899221	     32.07821071	    -15.13469794	      1.96171486	     67.39199355	     67.39199355	      5.58891781	    -19.04391562	     14.79854294	     -9.90534462	      4.97644564	      2.45900686	      8.40210877	    -15.16865118	     -7.37639949	     48.08266678	     45.54335546	      0.00000000	      0.00000000	     13.32284455	     -8.01047394	     -5.72564510	     41.43726240	     45.59530631	      0.00000000	      0.00000000
     34.11114286	     -2.35209065	     -6.50005957	      4.19963715	      1.05568220	      0.93148767	      0.51044938	     10.88951523	      5.50840204	    -16.77027579	     15.22314606	     15.22314606	      8.69914928	     -3.42116942	     -4.37378153	     33.56161799	    -15.19372452	      1.56711424	     65.05567193	     65.05567193	      6.18821600	    -19.11689655	     15.12265781	     -9.97171406	      4.86970441	      2.01712169	     10.92601110	    -15.13672389	     -7.40169101	     50.04863213	     45.48763188	      0.00000000	      0.00000000	     11.86200417	     -8.00275921	     -5.59196036	     39.38370521	     45.56672903	      0.00000000	      0.00000000
     34.12228571	     -2.44033509	     -6.49353713	      4.48988731	      1.05431037	      0.93181034	      0.51096959	     10.09962657	      5.67321530	    -16.90641630	     14.56258213	     14.56258213	      8.85695487	     -3.26935599	     -4.64407037	     34.80807614	    -15.11878689	      1.15085725	     62.37561018	     62.37561018	      6.78170884	    -19.14078454	     15.85720074	    -10.03846191	      4.79197069	      2.33568538	     12.38457228	    -15.91790066	     -6.52979043	     53.63177272	     45.33768559	      0.00000000	      0.00000000	     11.72712075	     -7.47433408	     -5.67334068	     35.00393756	     45.61919368	      0.00000000	      0.00000000
     34.13342857	     -2.48771407	     -6.47423573	      4.76338592	      1.05302992	      0.93214094	      0.51141978	      9.25881958	      5.83413473	    -16.99098503	     13.89366327	     13.89366327	      9.10299674	     -3.09544451	     -4.61779549	     35.71995834	    -14.94900554	      0.72435312	     59.31776396	     59.31776396	      7.10446826	    -19.12396888	     16.14073405	    -10.17320201	      4.69188229	      1.98021189	     14.82600698	    -15.90698443	     -6.68496795	     55.80063898	     45.28310530	      0.00000000	      0.00000000	     10.30985812	     -7.41099954	     -5.62920768	     33.23993888	     45.60460086	      0.00000000	      0.00000000
     34.14457143	     -2.57369646	     -6.44365812	      4.99694636	      1.05176285	      0.93233308	      0.51172216	      8.46249990	      5.96073700	    -17.12281236	     13.22464581	     13.22464581	      9.33949932	     -2.75970972	     -4.64324427	     36.44168089	    -14.63526906	      0.39626996	     55.97432727	     55.97432727	      7.28824843	    -19.06235049	     16.37903059	    -10.28332927	      4.58804189	      1.78750585	     17.06436075	    -16.03319763	     -6.64266014	     58.16694524	     45.21402448	      0.00000000	      0.00000000	      9.15579306	     -7.26432947	     -5.57915205	     31.12425025	     45.59553725	      0.00000000	      0.00000000
     34.15571429	     -2.67958493	     -6.37898939	      5.18103650	      1.05054883	      0.93241623	      0.51182569	      7.68550100	      6.02610970	    -17.29302344	     12.56170034	     12.56170034	      9.58426843	     -2.33184196	     -4.69971332	     36.94348063	    -14.16519697	      0.17299408	     52.34678527	     52.34678527	      7.37377002	    -18.94707110	     16.45294226	    -10.36022354	      4.47191076	      1.69277236	     19.20567778	    -16.19694627	     -6.56161948	     60.53647172	     45.14364723	      0.00000000	      0.00000000	      8.06454361	     -7.08581346	     -5.52058306	     29.09310314	     45.58600892	      0.00000000	      0.00000000
     34.16685714	     -2.86137864	     -6.37570435	      5.32863336	      1.04936594	      0.93222070	      0.51177399	      7.00949408	      6.09294900	    -17.72814776	     11.95152171	     11.95152171	      9.84728902	     -1.41909294	     -4.96937452	     37.33927505	    -13.69195266	      0.06091297	     48.45528002	     48.45528002	      6.90164374	    -18.68055666	     15.15794275	    -10.34940397	      4.45367419	      2.28968921	     20.45560707	    -17.16869629	     -6.09056110	     64.24058409	     45.02631162	      0.00000000	      0.00000000	      7.86996258	     -6.58187060	     -5.54665353	     25.63863186	     45.64380517	      0.00000000	      0.00000000
     34.17800000	     -3.02454978	     -6.32997254	      5.42817315	      1.04826616	      0.93200053	      0.51158304	      6.29758734	      6.16147825	    -17.78567172	     11.30673782	     11.30673782	     10.09154170	     -1.02144075	     -4.99821878	     37.55890839	    -13.07333181	      0.17521744	     44.46063435	     44.46063435	      6.88019972	    -18.16345097	     15.11812701	    -10.36136878	      4.36945902	      2.19070130	     22.75022730	    -17.13706548	     -6.35772801	     66.15927732	     44.98721807	      0.00000000	      0.00000000	      6.45741539	     -6.45443455	     -5.52662527	     24.58066052	     45.62774051	      0.00000000	      0.00000000
     34.18914286	     -3.19604729	     -6.37411558	      5.49726057	      1.04738036	      0.93152405	      0.51124804	      5.54381065	      6.26139361	    -18.35632307	     10.61496284	     10.61496284	     10.39622995	      0.28831730	     -5.28332463	     37.58009218	    -12.60524011	      0.26570107	     40.20379727	     40.20379727	      5.99579751	    -17.30468928	     12.41519033	    -10.34573714	      4.43542492	      2.47936598	     24.39075950	    -17.65977412	     -6.27386165	     69.46625615	     44.91246346	      0.00000000	      0.00000000	      5.43494771	     -6.17590693	     -5.41200640	     22.99102784	     45.64003651	      0.00000000	      0.00000000
     34.20028571	     -3.55815743	     -6.67043735	      5.49799590	      1.04638600	      0.93039603	      0.51096130	      5.27535057	      6.61278099	    -18.35980994	     10.37527495	     10.37527495	     10.71496582	      0.44536747	     -5.42452662	     38.00142852	    -12.34733295	      0.71554252	     36.39693724	     36.39693724	      6.37242102	    -15.73960209	     12.64081562	     -9.98204651	      4.75221614	      3.04218373	     26.48590917	    -18.23157465	     -6.59220772	     70.48001845	     44.90113026	      0.00000000	      0.00000000	      4.09722094	     -5.87400009	     -5.39650929	     22.46240537	     45.61363506	      0.00000000	      0.00000000
     34.21142857	     -3.58608603	     -6.52747142	      5.51071739	      1.04597515	      0.93014542	      0.51042644	      4.05426473	      6.63746008	    -18.62789557	      9.15865626	      9.15865626	     10.87452086	      1.64979905	     -5.43771299	     37.55646545	    -11.85662825	      0.54422819	     32.19868997	     32.19868997	      6.54405633	    -13.51533537	     12.27444715	    -10.17656432	      4.62342696	      2.35657490	     28.89436329	    -17.47154197	     -6.49379041	     73.31694545	     44.82096264	      0.00000000	      0.00000000	      2.38812290	     -5.85951047	     -5.23769447	     21.53985681	     45.56090410	      0.00000000	      0.00000000
     34.22257143	     -3.73253219	     -6.70059114	      5.47137222	      1.04560800	      0.92923101	      0.50989440	      3.17722715	      6.91892026	    -19.01059462	      8.32936772	      8.32936772	     11.14264517	      2.89440955	     -5.58899690	     37.41967281	    -11.69522583	      0.55173728	     28.45963344	     28.45963344	      6.66130304	    -11.12895069	     11.75152273	    -10.10096327	      4.84782703	      2.37928592	     30.94805957	    -17.47214115	     -6.33541979	     75.73927249	     44.75572329	      0.00000000	      0.00000000	      0.78724481	     -5.67615111	     -5.01741436	     21.12311895	     45.49041640	      0.00000000	      0.00000000
     34.23371429	     -3.89867447	     -6.77192821	      5.33138022	      1.04551298	      0.92822076	      0.50929397	      2.36994290	      7.07290025	    -19.13671848	      7.65843287	      7.65843287	     11.47520023	      3.78885244	     -5.71487988	     37.14368271	    -11.49118318	      0.37645825	     24.91501575	     24.91501575	      6.86283605	     -8.95389231	     11.75150572	     -9.96092650	      4.96849865	      2.53708266	     32.86524318	    -17.46042542	     -6.25801553	     77.66951952	     44.70585121	      0.00000000	      0.00000000	     -0.82920278	     -5.55334251	     -4.83694318	     20.74803819	     45.42216654	      0.00000000	      0.00000000
     34.24485714	     -4.03014909	     -7.00667607	      5.25332329	      1.04551891	      0.92699801	      0.50857764	      1.51743862	      7.40033048	    -19.36938253	      6.95257194	      6.95257194	     11.73451556	      4.89016012	     -5.79397202	     37.00319837	    -11.44921194	      0.24290835	     21.98794970	     21.98794970	      7.02925654	     -6.88567447	     11.81023917	     -9.82210683	      5.25971882	      2.63756949	     34.90962417	    -17.41889345	     -6.08784837	     79.81183799	     44.64947759	      0.00000000	      0.00000000	     -2.41665113	     -5.29146774	     -4.54037647	     20.65525285	     45.32366834	      0.00000000	      0.00000000
     34.25600000	     -4.17446869	     -7.18630083	      5.07445962	      1.04568119	      0.92569092	      0.50782480	      0.73191010	      7.64637684	    -19.44195740	      6.39433625	      6.39433625	     12.07296251	      5.72948311	     -5.86255842	     36.82205580	    -11.41264279	     -0.13272937	     19.50396449	     19.50396449	      7.13752336	     -5.39657028	     12.12360780	     -9.67212855	      5.51364318	      2.81527071	     36.79178782	    -17.35975362	     -5.96804304	     81.55776803	     44.60479677	      0.00000000	      0.00000000	     -4.00690881	     -5.10011764	     -4.28815723	     20.52979578	     45.23240242	      0.00000000	      0.00000000
     34.26714286	     -4.28489893	     -7.36418428	      4.87479735	      1.04606991	      0.92433056	      0.50695591	     -0.09491488	      7.87449544	    -19.50273863	      5.86830141	      5.86830141	     12.44290927	      6.60881462	     -5.87022140	     36.67191000	    -11.40142145	     -0.61724291	     17.69271825	     17.69271825	      7.26725188	     -4.37636844	     12.40608839	     -9.54742641	      5.77188713	      2.91977790	     38.65139858	    -17.19012141	     -5.75741484	     83.36543114	     44.55679894	      0.00000000	      0.00000000	     -5.67308288	     -4.89858419	     -3.96359915	     20.57452776	     45.12009725	      0.00000000	      0.00000000
     34.27828571	     -4.42124769	     -7.50794728	      4.65066499	      1.04664135	      0.92282524	      0.50589687	     -0.82667446	      7.97832009	    -19.85103544	      5.56131555	      5.56131555	     13.18055799	      8.09882468	     -5.28184750	     36.63519034	    -11.37249588	     -1.25377607	     16.61275642	     16.61275642	      7.42348891	     -3.93460659	     12.58299839	     -9.38028527	      5.99274274	      2.97433475	     40.32236489	    -17.32129210	     -4.92276198	     85.51988723	     44.52697407	      0.00000000	      0.00000000	     -8.08057817	     -5.03670994	     -1.72114669	     22.78556965	     44.57536544	      0.00000000	      0.00000000
